<svg xmlns="http://www.w3.org/2000/svg" xmlns:xlink="http://www.w3.org/1999/xlink" width="500" zoomAndPan="magnify" viewBox="0 0 375 374.999991" height="500" preserveAspectRatio="xMidYMid meet" version="1.0"><defs><clipPath id="5304f8f019"><path d="M 193 32.5 L 333.1875 32.5 L 333.1875 342.25 L 193 342.25 Z M 193 32.5 " clip-rule="nonzero"/></clipPath><clipPath id="f169f8c8b1"><path d="M 42.1875 32.5 L 182 32.5 L 182 342.25 L 42.1875 342.25 Z M 42.1875 32.5 " clip-rule="nonzero"/></clipPath></defs><path fill="#ffffff" d="M 232.34375 292.164062 C 232.34375 296.511719 228.808594 300.03125 224.457031 300.03125 C 220.097656 300.03125 216.566406 296.511719 216.566406 292.164062 C 216.566406 287.816406 220.097656 284.292969 224.457031 284.292969 C 228.808594 284.292969 232.34375 287.816406 232.34375 292.164062 " fill-opacity="1" fill-rule="nonzero"/><path fill="#9ca3af" d="M 280.476562 265.742188 C 280.476562 270.089844 276.949219 273.613281 272.589844 273.613281 C 268.234375 273.613281 264.703125 270.089844 264.703125 265.742188 C 264.703125 261.394531 268.234375 257.871094 272.589844 257.871094 C 276.949219 257.871094 280.476562 261.394531 280.476562 265.742188 " fill-opacity="1" fill-rule="nonzero"/><path fill="#ffffff" d="M 62.140625 232.539062 C 58.113281 228.675781 55.894531 223.492188 55.894531 217.945312 C 55.894531 212.832031 57.832031 207.941406 61.351562 204.167969 L 61.765625 203.722656 C 63.453125 201.910156 63.835938 199.238281 62.722656 197.023438 L 62.449219 196.484375 C 61.011719 193.617188 60.28125 190.570312 60.28125 187.417969 C 60.28125 182.304688 62.21875 177.414062 65.734375 173.640625 L 66.238281 173.101562 C 68.207031 170.988281 68.367188 167.773438 66.613281 165.476562 L 66.167969 164.890625 C 63.132812 160.90625 61.699219 156.09375 62.074219 151.089844 C 62.996094 138.941406 75.890625 129.03125 87.742188 133.804688 C 93.507812 136.128906 97.933594 141.210938 99.414062 147.246094 C 100.0625 149.875 102.355469 151.761719 105.066406 151.644531 L 105.710938 151.621094 C 109.222656 151.46875 111.65625 148.144531 110.851562 144.730469 C 107.605469 130.972656 95.21875 120.695312 80.453125 120.695312 C 79.382812 120.695312 78.332031 120.769531 77.285156 120.875 C 77.234375 120.355469 77.203125 119.835938 77.203125 119.316406 C 77.203125 112.703125 81.183594 106.824219 87.34375 104.347656 L 87.5 104.277344 C 90.160156 103.128906 91.800781 100.425781 91.589844 97.539062 L 91.582031 97.410156 C 91.554688 97.066406 91.527344 96.71875 91.527344 96.363281 C 91.527344 88.640625 97.035156 81.976562 104.628906 80.519531 C 107.878906 79.894531 110.210938 77.03125 110.15625 73.726562 C 110.15625 73.574219 110.144531 73.425781 110.136719 73.261719 C 110.21875 64.429688 117.445312 57.261719 126.316406 57.261719 C 128.835938 57.261719 131.152344 57.753906 133.171875 59.324219 C 135.808594 61.375 137.953125 64.28125 139.085938 67.421875 C 139.675781 69.046875 140.003906 70.664062 140.121094 72.242188 C 140.347656 75.347656 143.074219 77.601562 146.175781 77.253906 L 147.992188 77.050781 C 150.804688 76.734375 152.863281 74.261719 152.65625 71.445312 C 152.027344 62.542969 147.640625 54.84375 141.175781 49.71875 C 144.179688 47.421875 147.847656 46.128906 151.726562 46.128906 C 160.679688 46.128906 168.226562 52.957031 169.273438 62.015625 L 169.40625 62.902344 L 169.40625 311.617188 L 169.308594 312.582031 C 168.363281 321.773438 160.804688 328.707031 151.726562 328.707031 C 147.328125 328.707031 143.109375 327.042969 139.847656 324.019531 L 139.589844 323.777344 C 138.46875 322.742188 136.988281 322.171875 135.457031 322.195312 L 135.105469 322.199219 L 134.667969 322.21875 C 126.210938 322.152344 118.746094 316.800781 115.832031 309.089844 C 125.324219 304.027344 131.796875 294.050781 131.796875 282.582031 C 131.796875 282.363281 131.792969 282.144531 131.789062 281.921875 C 131.710938 278.652344 128.578125 276.316406 125.398438 277.117188 L 124.566406 277.328125 C 122.15625 277.929688 120.503906 280.105469 120.496094 282.585938 C 120.472656 291.640625 114.054688 299.179688 105.539062 300.953125 C 104.78125 301.042969 104.042969 301.101562 103.320312 301.101562 C 92.125 301.101562 83.011719 292.011719 83.011719 280.839844 C 83.011719 280.195312 83.046875 279.515625 83.117188 278.824219 L 83.195312 278.003906 C 83.496094 274.992188 81.484375 272.195312 78.53125 271.625 C 73.914062 270.730469 69.402344 269.0625 66.15625 265.667969 C 59.179688 258.386719 58.691406 248.457031 63.246094 240.976562 L 63.609375 240.375 C 65.054688 238.003906 64.652344 234.949219 62.648438 233.027344 L 62.140625 232.539062 " fill-opacity="1" fill-rule="nonzero"/><g clip-path="url(#5304f8f019)"><path fill="#9ca3af" d="M 313.234375 232.539062 L 312.726562 233.027344 C 310.722656 234.949219 310.324219 238.003906 311.769531 240.375 L 312.132812 240.976562 C 316.683594 248.457031 316.195312 258.386719 309.21875 265.667969 C 305.972656 269.0625 301.460938 270.730469 296.84375 271.625 C 293.890625 272.195312 291.878906 274.992188 292.179688 278.003906 L 292.257812 278.824219 C 292.328125 279.515625 292.363281 280.195312 292.363281 280.839844 C 292.363281 292.011719 283.25 301.101562 272.054688 301.101562 C 271.332031 301.101562 270.59375 301.042969 269.835938 300.953125 C 261.320312 299.179688 254.902344 291.640625 254.878906 282.585938 C 254.875 280.105469 253.21875 277.929688 250.808594 277.328125 L 249.976562 277.117188 C 246.796875 276.316406 243.664062 278.652344 243.585938 281.921875 C 243.582031 282.144531 243.578125 282.363281 243.578125 282.582031 C 243.578125 294.050781 250.054688 304.027344 259.542969 309.089844 C 256.628906 316.800781 249.164062 322.152344 240.710938 322.21875 L 240.269531 322.199219 L 239.917969 322.195312 C 238.386719 322.171875 236.910156 322.742188 235.785156 323.777344 L 235.527344 324.019531 C 232.265625 327.042969 228.046875 328.707031 223.648438 328.707031 C 214.570312 328.707031 207.011719 321.773438 206.070312 312.582031 L 205.972656 311.617188 L 205.972656 62.902344 L 206.101562 62.015625 C 207.148438 52.957031 214.695312 46.128906 223.648438 46.128906 C 227.527344 46.128906 231.195312 47.421875 234.199219 49.71875 C 227.734375 54.84375 223.347656 62.542969 222.71875 71.445312 C 222.511719 74.261719 224.570312 76.734375 227.382812 77.050781 L 229.199219 77.253906 C 232.300781 77.601562 235.027344 75.347656 235.253906 72.242188 C 235.371094 70.664062 235.703125 69.046875 236.292969 67.421875 C 237.421875 64.28125 239.566406 61.375 242.203125 59.324219 C 244.222656 57.753906 246.539062 57.261719 249.058594 57.261719 C 257.929688 57.261719 265.15625 64.429688 265.238281 73.261719 C 265.230469 73.425781 265.222656 73.574219 265.21875 73.726562 C 265.164062 77.03125 267.496094 79.894531 270.746094 80.519531 C 278.339844 81.976562 283.851562 88.640625 283.851562 96.363281 C 283.851562 96.71875 283.820312 97.066406 283.792969 97.410156 L 283.785156 97.539062 C 283.574219 100.425781 285.214844 103.128906 287.875 104.277344 L 288.03125 104.347656 C 294.191406 106.824219 298.171875 112.703125 298.171875 119.316406 C 298.171875 119.835938 298.140625 120.355469 298.089844 120.875 C 297.042969 120.769531 295.992188 120.695312 294.921875 120.695312 C 280.15625 120.695312 267.769531 130.972656 264.523438 144.730469 C 263.71875 148.144531 266.152344 151.46875 269.664062 151.621094 L 270.308594 151.644531 C 273.019531 151.761719 275.316406 149.875 275.960938 147.246094 C 277.441406 141.210938 281.867188 136.128906 287.632812 133.804688 C 299.484375 129.03125 312.378906 138.941406 313.300781 151.089844 C 313.675781 156.09375 312.242188 160.90625 309.207031 164.890625 L 308.761719 165.476562 C 307.011719 167.773438 307.167969 170.988281 309.136719 173.101562 L 309.640625 173.640625 C 313.15625 177.414062 315.09375 182.304688 315.09375 187.417969 C 315.09375 190.570312 314.363281 193.617188 312.925781 196.484375 L 312.652344 197.023438 C 311.539062 199.238281 311.921875 201.910156 313.613281 203.722656 L 314.023438 204.167969 C 317.542969 207.941406 319.480469 212.832031 319.480469 217.945312 C 319.480469 223.492188 317.261719 228.675781 313.234375 232.539062 Z M 333.113281 217.945312 C 333.113281 210.898438 330.921875 204.109375 326.875 198.414062 C 328.101562 194.878906 328.726562 191.199219 328.726562 187.417969 C 328.726562 180.660156 326.710938 174.144531 322.976562 168.601562 C 325.613281 163.710938 326.992188 158.289062 326.992188 152.660156 C 326.992188 140.957031 321.027344 130.320312 311.398438 124.167969 C 311.667969 122.566406 311.800781 120.945312 311.800781 119.316406 C 311.800781 108.722656 306.265625 99.160156 297.375 93.835938 C 296.40625 82.484375 288.980469 72.722656 278.488281 68.644531 C 276.195312 54.5 263.871094 43.664062 249.058594 43.664062 C 248.542969 43.664062 248.027344 43.675781 247.511719 43.703125 C 241.601562 36.636719 232.960938 32.523438 223.648438 32.523438 C 209.765625 32.523438 197.804688 41.703125 193.78125 54.65625 L 193.78125 320.132812 C 197.773438 333.121094 209.683594 342.308594 223.648438 342.308594 C 230.59375 342.308594 237.269531 339.996094 242.726562 335.75 C 255.769531 334.910156 267.140625 326.578125 271.988281 314.703125 L 272.054688 314.703125 C 289.886719 314.703125 304.554688 300.90625 305.890625 283.449219 C 319.417969 278.835938 328.726562 266.195312 328.726562 251.464844 C 328.726562 247.015625 327.835938 242.613281 326.125 238.515625 C 330.660156 232.636719 333.113281 225.496094 333.113281 217.945312 " fill-opacity="1" fill-rule="nonzero"/></g><g clip-path="url(#f169f8c8b1)"><path fill="#9ca3af" d="M 55.894531 217.945312 C 55.894531 212.832031 57.832031 207.941406 61.351562 204.167969 L 61.765625 203.722656 C 63.453125 201.910156 63.835938 199.238281 62.722656 197.023438 L 62.449219 196.484375 C 61.011719 193.617188 60.28125 190.570312 60.28125 187.417969 C 60.28125 182.304688 62.21875 177.414062 65.734375 173.640625 L 66.238281 173.101562 C 68.207031 170.988281 68.367188 167.773438 66.613281 165.476562 L 66.167969 164.890625 C 63.132812 160.90625 61.699219 156.09375 62.074219 151.089844 C 62.996094 138.941406 75.890625 129.03125 87.742188 133.804688 C 93.507812 136.128906 97.933594 141.210938 99.414062 147.246094 C 100.0625 149.875 102.355469 151.761719 105.066406 151.644531 L 105.710938 151.621094 C 109.222656 151.46875 111.65625 148.144531 110.851562 144.730469 C 107.605469 130.972656 95.21875 120.695312 80.453125 120.695312 C 79.382812 120.695312 78.332031 120.769531 77.285156 120.875 C 77.234375 120.355469 77.203125 119.835938 77.203125 119.316406 C 77.203125 112.703125 81.183594 106.824219 87.34375 104.347656 L 87.5 104.277344 C 90.160156 103.128906 91.800781 100.425781 91.589844 97.539062 L 91.582031 97.410156 C 91.554688 97.066406 91.527344 96.71875 91.527344 96.363281 C 91.527344 88.640625 97.035156 81.976562 104.628906 80.519531 C 107.878906 79.894531 110.210938 77.03125 110.15625 73.726562 C 110.15625 73.574219 110.144531 73.425781 110.136719 73.261719 C 110.21875 64.429688 117.445312 57.261719 126.316406 57.261719 C 128.835938 57.261719 131.152344 57.753906 133.171875 59.324219 C 135.808594 61.375 137.953125 64.28125 139.085938 67.421875 C 139.671875 69.046875 140.003906 70.664062 140.121094 72.242188 C 140.347656 75.347656 143.074219 77.601562 146.175781 77.253906 L 147.992188 77.050781 C 150.804688 76.734375 152.863281 74.261719 152.65625 71.445312 C 152.027344 62.542969 147.640625 54.84375 141.175781 49.71875 C 144.179688 47.421875 147.847656 46.128906 151.726562 46.128906 C 160.679688 46.128906 168.226562 52.957031 169.273438 62.015625 L 169.40625 62.902344 L 169.40625 311.617188 L 169.308594 312.582031 C 168.363281 321.773438 160.804688 328.707031 151.726562 328.707031 C 147.328125 328.707031 143.109375 327.042969 139.847656 324.019531 L 139.589844 323.777344 C 138.46875 322.742188 136.988281 322.171875 135.457031 322.195312 L 135.105469 322.199219 L 134.667969 322.21875 C 126.210938 322.152344 118.746094 316.800781 115.832031 309.089844 C 125.324219 304.027344 131.796875 294.050781 131.796875 282.582031 C 131.796875 282.363281 131.792969 282.144531 131.789062 281.921875 C 131.710938 278.652344 128.578125 276.316406 125.398438 277.117188 L 124.566406 277.328125 C 122.15625 277.929688 120.503906 280.105469 120.496094 282.585938 C 120.472656 291.640625 114.054688 299.179688 105.539062 300.953125 C 104.78125 301.042969 104.042969 301.101562 103.320312 301.101562 C 92.125 301.101562 83.011719 292.011719 83.011719 280.839844 C 83.011719 280.195312 83.046875 279.515625 83.117188 278.824219 L 83.195312 278.003906 C 83.496094 274.992188 81.484375 272.195312 78.53125 271.625 C 73.914062 270.730469 69.402344 269.0625 66.15625 265.667969 C 59.179688 258.386719 58.691406 248.457031 63.246094 240.976562 L 63.609375 240.375 C 65.054688 238.003906 64.652344 234.949219 62.648438 233.027344 L 62.140625 232.539062 C 58.113281 228.675781 55.894531 223.492188 55.894531 217.945312 Z M 49.25 238.515625 C 47.539062 242.613281 46.648438 247.015625 46.648438 251.464844 C 46.648438 266.195312 55.960938 278.835938 69.484375 283.449219 C 70.820312 300.90625 85.488281 314.703125 103.320312 314.703125 L 103.386719 314.703125 C 108.234375 326.578125 119.605469 334.910156 132.648438 335.75 C 138.105469 339.996094 144.78125 342.308594 151.726562 342.308594 C 165.695312 342.308594 177.601562 333.121094 181.59375 320.132812 L 181.59375 54.65625 C 177.570312 41.703125 165.609375 32.523438 151.726562 32.523438 C 142.414062 32.523438 133.773438 36.636719 127.863281 43.703125 C 127.347656 43.675781 126.832031 43.664062 126.316406 43.664062 C 111.503906 43.664062 99.179688 54.5 96.886719 68.644531 C 86.394531 72.722656 78.96875 82.484375 78 93.835938 C 69.109375 99.160156 63.574219 108.722656 63.574219 119.316406 C 63.574219 120.945312 63.707031 122.566406 63.976562 124.167969 C 54.347656 130.320312 48.382812 140.957031 48.382812 152.660156 C 48.382812 158.289062 49.761719 163.710938 52.398438 168.601562 C 48.664062 174.144531 46.648438 180.660156 46.648438 187.417969 C 46.648438 191.199219 47.273438 194.878906 48.5 198.414062 C 44.453125 204.109375 42.261719 210.898438 42.261719 217.945312 C 42.261719 225.496094 44.714844 232.636719 49.25 238.515625 " fill-opacity="1" fill-rule="nonzero"/></g><path fill="#ffffff" d="M 233.28125 116.125 C 233.28125 120.988281 229.328125 124.929688 224.457031 124.929688 C 219.582031 124.929688 215.628906 120.988281 215.628906 116.125 C 215.628906 111.257812 219.582031 107.316406 224.457031 107.316406 C 229.328125 107.316406 233.28125 111.257812 233.28125 116.125 " fill-opacity="1" fill-rule="nonzero"/><path fill="#9ca3af" d="M 275.921875 113.605469 C 275.921875 118.472656 271.96875 122.414062 267.09375 122.414062 C 262.222656 122.414062 258.269531 118.472656 258.269531 113.605469 C 258.269531 108.742188 262.222656 104.800781 267.09375 104.800781 C 271.96875 104.800781 275.921875 108.742188 275.921875 113.605469 " fill-opacity="1" fill-rule="nonzero"/><path fill="#9ca3af" d="M 246.9375 161.835938 C 246.9375 170.519531 239.882812 177.5625 231.179688 177.5625 C 222.476562 177.5625 215.421875 170.519531 215.421875 161.835938 C 215.421875 153.148438 222.476562 146.109375 231.179688 146.109375 C 239.882812 146.109375 246.9375 153.148438 246.9375 161.835938 " fill-opacity="1" fill-rule="nonzero"/><path fill="#9ca3af" d="M 244.417969 246.96875 C 244.417969 255.652344 237.363281 262.695312 228.660156 262.695312 C 219.953125 262.695312 212.898438 255.652344 212.898438 246.96875 C 212.898438 238.28125 219.953125 231.242188 228.660156 231.242188 C 237.363281 231.242188 244.417969 238.28125 244.417969 246.96875 " fill-opacity="1" fill-rule="nonzero"/><path fill="#ffffff" d="M 282.855469 215.515625 C 282.855469 224.199219 275.796875 231.242188 267.09375 231.242188 C 258.390625 231.242188 251.335938 224.199219 251.335938 215.515625 C 251.335938 206.828125 258.390625 199.789062 267.09375 199.789062 C 275.796875 199.789062 282.855469 206.828125 282.855469 215.515625 " fill-opacity="1" fill-rule="nonzero"/><path fill="#ffffff" d="M 288.363281 169.703125 C 288.363281 174.050781 284.835938 177.574219 280.476562 177.574219 C 276.125 177.574219 272.589844 174.050781 272.589844 169.703125 C 272.589844 165.355469 276.125 161.835938 280.476562 161.835938 C 284.835938 161.835938 288.363281 165.355469 288.363281 169.703125 " fill-opacity="1" fill-rule="nonzero"/><path fill="#ffffff" d="M 254.824219 91.378906 C 254.824219 95.726562 251.292969 99.25 246.9375 99.25 C 242.582031 99.25 239.050781 95.726562 239.050781 91.378906 C 239.050781 87.03125 242.582031 83.511719 246.9375 83.511719 C 251.292969 83.511719 254.824219 87.03125 254.824219 91.378906 " fill-opacity="1" fill-rule="nonzero"/><path fill="#ffffff" d="M 244.429688 197.480469 C 244.429688 201.828125 240.902344 205.351562 236.542969 205.351562 C 232.1875 205.351562 228.660156 201.828125 228.660156 197.480469 C 228.660156 193.132812 232.1875 189.613281 236.542969 189.613281 C 240.902344 189.613281 244.429688 193.132812 244.429688 197.480469 " fill-opacity="1" fill-rule="nonzero"/><path fill="#9ca3af" d="M 308.40625 223.386719 C 308.40625 227.734375 304.875 231.253906 300.519531 231.253906 C 296.164062 231.253906 292.632812 227.734375 292.632812 223.386719 C 292.632812 219.039062 296.164062 215.515625 300.519531 215.515625 C 304.875 215.515625 308.40625 219.039062 308.40625 223.386719 " fill-opacity="1" fill-rule="nonzero"/></svg>