<svg xmlns="http://www.w3.org/2000/svg" xmlns:xlink="http://www.w3.org/1999/xlink" width="500" zoomAndPan="magnify" viewBox="0 0 375 374.999991" height="500" preserveAspectRatio="xMidYMid meet" version="1.0"><defs><clipPath id="49acd9be1a"><path d="M 193 37.5 L 328.125 37.5 L 328.125 337.5 L 193 337.5 Z M 193 37.5 " clip-rule="nonzero"/></clipPath><clipPath id="5b5183b171"><path d="M 46.875 37.5 L 182 37.5 L 182 337.5 L 46.875 337.5 Z M 46.875 37.5 " clip-rule="nonzero"/></clipPath></defs><path fill="#56aeff" d="M 230.660156 288.988281 C 230.660156 293.199219 227.246094 296.609375 223.035156 296.609375 C 218.824219 296.609375 215.410156 293.199219 215.410156 288.988281 C 215.410156 284.777344 218.824219 281.367188 223.035156 281.367188 C 227.246094 281.367188 230.660156 284.777344 230.660156 288.988281 " fill-opacity="1" fill-rule="nonzero"/><path fill="#145da0" d="M 277.183594 263.398438 C 277.183594 267.609375 273.769531 271.023438 269.558594 271.023438 C 265.347656 271.023438 261.9375 267.609375 261.9375 263.398438 C 261.9375 259.1875 265.347656 255.777344 269.558594 255.777344 C 273.769531 255.777344 277.183594 259.1875 277.183594 263.398438 " fill-opacity="1" fill-rule="nonzero"/><path fill="#56aeff" d="M 66.160156 231.242188 C 62.265625 227.5 60.121094 222.480469 60.121094 217.109375 C 60.121094 212.15625 61.992188 207.417969 65.394531 203.765625 L 65.792969 203.332031 C 67.429688 201.578125 67.796875 198.988281 66.71875 196.84375 L 66.457031 196.320312 C 65.066406 193.546875 64.359375 190.597656 64.359375 187.539062 C 64.359375 182.589844 66.230469 177.851562 69.628906 174.195312 L 70.117188 173.675781 C 72.019531 171.628906 72.175781 168.515625 70.480469 166.292969 L 70.050781 165.726562 C 67.117188 161.867188 65.730469 157.203125 66.09375 152.355469 C 66.984375 140.589844 79.449219 130.992188 90.902344 135.617188 C 96.476562 137.867188 100.753906 142.789062 102.183594 148.632812 C 102.808594 151.179688 105.023438 153.007812 107.644531 152.894531 L 108.269531 152.871094 C 111.664062 152.722656 114.015625 149.503906 113.238281 146.195312 C 110.101562 132.871094 98.128906 122.921875 83.859375 122.921875 C 82.824219 122.921875 81.804688 122.992188 80.792969 123.09375 C 80.746094 122.589844 80.71875 122.085938 80.71875 121.582031 C 80.71875 115.179688 84.5625 109.484375 90.515625 107.085938 L 90.667969 107.019531 C 93.238281 105.90625 94.824219 103.289062 94.621094 100.492188 L 94.613281 100.367188 C 94.585938 100.03125 94.558594 99.695312 94.558594 99.351562 C 94.558594 91.875 99.882812 85.417969 107.222656 84.007812 C 110.363281 83.402344 112.617188 80.628906 112.5625 77.429688 C 112.5625 77.28125 112.554688 77.136719 112.546875 76.980469 C 112.625 68.421875 119.613281 61.484375 128.1875 61.484375 C 130.621094 61.484375 132.855469 61.960938 134.8125 63.480469 C 137.359375 65.464844 139.433594 68.28125 140.527344 71.320312 C 141.09375 72.898438 141.414062 74.460938 141.527344 75.992188 C 141.746094 79 144.382812 81.183594 147.378906 80.84375 L 149.136719 80.648438 C 151.851562 80.34375 153.839844 77.945312 153.640625 75.222656 C 153.035156 66.597656 148.796875 59.140625 142.542969 54.175781 C 145.449219 51.953125 148.996094 50.699219 152.742188 50.699219 C 161.398438 50.699219 168.6875 57.3125 169.703125 66.085938 L 169.832031 66.945312 L 169.832031 307.832031 L 169.734375 308.769531 C 168.824219 317.667969 161.515625 324.382812 152.742188 324.382812 C 148.492188 324.382812 144.414062 322.769531 141.261719 319.84375 L 141.011719 319.609375 C 139.929688 318.605469 138.5 318.050781 137.019531 318.074219 L 136.679688 318.082031 L 136.253906 318.101562 C 128.082031 318.035156 120.867188 312.851562 118.050781 305.386719 C 127.222656 300.480469 133.480469 290.816406 133.480469 279.710938 C 133.480469 279.496094 133.480469 279.285156 133.472656 279.074219 C 133.398438 275.90625 130.367188 273.644531 127.296875 274.417969 L 126.492188 274.621094 C 124.164062 275.203125 122.566406 277.3125 122.558594 279.714844 C 122.539062 288.484375 116.332031 295.785156 108.101562 297.503906 C 107.371094 297.589844 106.65625 297.644531 105.957031 297.644531 C 95.136719 297.644531 86.332031 288.84375 86.332031 278.023438 C 86.332031 277.398438 86.367188 276.738281 86.433594 276.070312 L 86.507812 275.277344 C 86.796875 272.359375 84.851562 269.652344 82 269.097656 C 77.539062 268.234375 73.179688 266.613281 70.039062 263.332031 C 63.296875 256.277344 62.824219 246.65625 67.226562 239.414062 L 67.578125 238.832031 C 68.972656 236.535156 68.585938 233.578125 66.652344 231.714844 L 66.160156 231.242188 " fill-opacity="1" fill-rule="nonzero"/><g clip-path="url(#49acd9be1a)"><path fill="#051d40" d="M 308.839844 231.242188 L 308.351562 231.714844 C 306.414062 233.578125 306.03125 236.535156 307.425781 238.832031 L 307.777344 239.414062 C 312.175781 246.65625 311.703125 256.277344 304.960938 263.332031 C 301.820312 266.613281 297.460938 268.234375 293 269.097656 C 290.148438 269.652344 288.203125 272.359375 288.492188 275.277344 L 288.566406 276.070312 C 288.632812 276.738281 288.667969 277.398438 288.667969 278.023438 C 288.667969 288.84375 279.863281 297.644531 269.042969 297.644531 C 268.34375 297.644531 267.628906 297.589844 266.898438 297.503906 C 258.667969 295.785156 252.460938 288.484375 252.441406 279.714844 C 252.4375 277.3125 250.835938 275.203125 248.507812 274.621094 L 247.703125 274.417969 C 244.632812 273.644531 241.601562 275.90625 241.527344 279.074219 C 241.519531 279.285156 241.519531 279.496094 241.519531 279.710938 C 241.519531 290.816406 247.777344 300.480469 256.949219 305.386719 C 254.132812 312.851562 246.917969 318.035156 238.746094 318.101562 L 238.320312 318.082031 L 237.980469 318.074219 C 236.5 318.050781 235.074219 318.605469 233.988281 319.605469 L 233.738281 319.84375 C 230.585938 322.769531 226.507812 324.382812 222.257812 324.382812 C 213.480469 324.382812 206.175781 317.667969 205.265625 308.769531 L 205.171875 307.832031 L 205.171875 66.945312 L 205.296875 66.085938 C 206.3125 57.3125 213.601562 50.699219 222.257812 50.699219 C 226.007812 50.699219 229.550781 51.953125 232.457031 54.175781 C 226.203125 59.140625 221.96875 66.597656 221.359375 75.222656 C 221.160156 77.945312 223.148438 80.34375 225.863281 80.648438 L 227.621094 80.84375 C 230.617188 81.183594 233.253906 79 233.472656 75.992188 C 233.585938 74.460938 233.910156 72.898438 234.476562 71.320312 C 235.566406 68.28125 237.640625 65.464844 240.1875 63.480469 C 242.144531 61.960938 244.378906 61.484375 246.8125 61.484375 C 255.386719 61.484375 262.375 68.421875 262.453125 76.980469 C 262.445312 77.136719 262.4375 77.28125 262.4375 77.429688 C 262.382812 80.628906 264.636719 83.402344 267.777344 84.007812 C 275.117188 85.417969 280.445312 91.875 280.445312 99.351562 C 280.445312 99.695312 280.414062 100.03125 280.386719 100.367188 L 280.378906 100.492188 C 280.175781 103.289062 281.761719 105.90625 284.332031 107.019531 L 284.484375 107.085938 C 290.4375 109.484375 294.28125 115.179688 294.28125 121.582031 C 294.28125 122.085938 294.253906 122.589844 294.207031 123.09375 C 293.195312 122.992188 292.179688 122.921875 291.140625 122.921875 C 276.871094 122.921875 264.898438 132.871094 261.761719 146.195312 C 260.984375 149.503906 263.335938 152.722656 266.730469 152.871094 L 267.355469 152.894531 C 269.976562 153.007812 272.195312 151.179688 272.816406 148.632812 C 274.246094 142.789062 278.523438 137.867188 284.097656 135.617188 C 295.550781 130.992188 308.015625 140.589844 308.90625 152.355469 C 309.269531 157.203125 307.882812 161.867188 304.949219 165.726562 L 304.519531 166.292969 C 302.828125 168.515625 302.980469 171.628906 304.882812 173.675781 L 305.371094 174.195312 C 308.769531 177.851562 310.640625 182.589844 310.640625 187.539062 C 310.640625 190.597656 309.933594 193.546875 308.542969 196.320312 L 308.28125 196.84375 C 307.203125 198.988281 307.570312 201.578125 309.210938 203.332031 L 309.605469 203.765625 C 313.007812 207.417969 314.878906 212.15625 314.878906 217.109375 C 314.878906 222.480469 312.734375 227.5 308.839844 231.242188 Z M 328.054688 217.109375 C 328.054688 210.28125 325.9375 203.707031 322.027344 198.191406 C 323.210938 194.769531 323.816406 191.203125 323.816406 187.539062 C 323.816406 180.996094 321.867188 174.6875 318.257812 169.316406 C 320.808594 164.582031 322.136719 159.332031 322.136719 153.878906 C 322.136719 142.542969 316.375 132.242188 307.066406 126.28125 C 307.328125 124.730469 307.457031 123.160156 307.457031 121.582031 C 307.457031 111.324219 302.109375 102.058594 293.515625 96.90625 C 292.578125 85.910156 285.402344 76.457031 275.257812 72.507812 C 273.042969 58.804688 261.132812 48.3125 246.8125 48.3125 C 246.316406 48.3125 245.816406 48.324219 245.320312 48.351562 C 239.609375 41.503906 231.257812 37.523438 222.257812 37.523438 C 208.839844 37.523438 197.277344 46.414062 193.390625 58.957031 L 193.390625 316.078125 C 197.25 328.65625 208.757812 337.558594 222.257812 337.558594 C 228.96875 337.558594 235.421875 335.316406 240.695312 331.207031 C 253.300781 330.390625 264.292969 322.320312 268.980469 310.820312 L 269.042969 310.820312 C 286.277344 310.820312 300.453125 297.457031 301.746094 280.550781 C 314.820312 276.082031 323.816406 263.835938 323.816406 249.570312 C 323.816406 245.261719 322.957031 241 321.300781 237.03125 C 325.683594 231.335938 328.054688 224.421875 328.054688 217.109375 " fill-opacity="1" fill-rule="nonzero"/></g><g clip-path="url(#5b5183b171)"><path fill="#051d40" d="M 60.121094 217.109375 C 60.121094 212.15625 61.992188 207.417969 65.394531 203.765625 L 65.792969 203.332031 C 67.429688 201.578125 67.796875 198.988281 66.71875 196.84375 L 66.457031 196.320312 C 65.066406 193.546875 64.359375 190.597656 64.359375 187.539062 C 64.359375 182.589844 66.230469 177.851562 69.628906 174.195312 L 70.117188 173.675781 C 72.019531 171.628906 72.175781 168.515625 70.480469 166.292969 L 70.050781 165.726562 C 67.117188 161.867188 65.730469 157.203125 66.09375 152.355469 C 66.984375 140.589844 79.449219 130.992188 90.902344 135.617188 C 96.476562 137.867188 100.753906 142.789062 102.183594 148.632812 C 102.808594 151.179688 105.027344 153.007812 107.644531 152.894531 L 108.269531 152.871094 C 111.664062 152.722656 114.015625 149.503906 113.238281 146.195312 C 110.101562 132.871094 98.128906 122.921875 83.859375 122.921875 C 82.824219 122.921875 81.804688 122.992188 80.792969 123.09375 C 80.746094 122.589844 80.71875 122.085938 80.71875 121.582031 C 80.71875 115.179688 84.5625 109.484375 90.515625 107.085938 L 90.667969 107.019531 C 93.238281 105.90625 94.824219 103.289062 94.621094 100.492188 L 94.613281 100.367188 C 94.585938 100.03125 94.558594 99.695312 94.558594 99.351562 C 94.558594 91.875 99.882812 85.417969 107.222656 84.007812 C 110.363281 83.402344 112.617188 80.628906 112.5625 77.429688 C 112.5625 77.28125 112.554688 77.136719 112.546875 76.980469 C 112.625 68.421875 119.613281 61.484375 128.1875 61.484375 C 130.621094 61.484375 132.855469 61.960938 134.8125 63.480469 C 137.359375 65.464844 139.433594 68.28125 140.527344 71.320312 C 141.089844 72.898438 141.414062 74.460938 141.527344 75.992188 C 141.746094 79 144.382812 81.183594 147.378906 80.84375 L 149.136719 80.648438 C 151.851562 80.34375 153.839844 77.945312 153.640625 75.222656 C 153.035156 66.597656 148.796875 59.140625 142.542969 54.175781 C 145.449219 51.953125 148.996094 50.699219 152.742188 50.699219 C 161.398438 50.699219 168.6875 57.3125 169.703125 66.085938 L 169.832031 66.945312 L 169.832031 307.832031 L 169.734375 308.769531 C 168.824219 317.667969 161.515625 324.382812 152.742188 324.382812 C 148.492188 324.382812 144.414062 322.769531 141.261719 319.84375 L 141.011719 319.605469 C 139.929688 318.605469 138.5 318.050781 137.019531 318.074219 L 136.679688 318.082031 L 136.253906 318.101562 C 128.082031 318.035156 120.867188 312.851562 118.050781 305.386719 C 127.222656 300.480469 133.480469 290.816406 133.480469 279.710938 C 133.480469 279.496094 133.480469 279.285156 133.472656 279.074219 C 133.398438 275.90625 130.367188 273.644531 127.296875 274.417969 L 126.492188 274.621094 C 124.164062 275.203125 122.566406 277.3125 122.558594 279.714844 C 122.539062 288.484375 116.332031 295.785156 108.101562 297.503906 C 107.371094 297.589844 106.65625 297.644531 105.957031 297.644531 C 95.136719 297.644531 86.332031 288.84375 86.332031 278.023438 C 86.332031 277.398438 86.367188 276.738281 86.433594 276.070312 L 86.507812 275.277344 C 86.796875 272.359375 84.851562 269.652344 82 269.097656 C 77.539062 268.234375 73.179688 266.613281 70.039062 263.332031 C 63.296875 256.277344 62.824219 246.65625 67.226562 239.414062 L 67.578125 238.832031 C 68.972656 236.535156 68.585938 233.578125 66.652344 231.714844 L 66.160156 231.242188 C 62.265625 227.5 60.121094 222.480469 60.121094 217.109375 Z M 53.699219 237.03125 C 52.046875 241 51.183594 245.261719 51.183594 249.570312 C 51.183594 263.835938 60.183594 276.082031 73.253906 280.550781 C 74.546875 297.457031 88.722656 310.820312 105.957031 310.820312 L 106.019531 310.820312 C 110.707031 322.320312 121.699219 330.390625 134.304688 331.207031 C 139.578125 335.316406 146.03125 337.558594 152.742188 337.558594 C 166.242188 337.558594 177.75 328.65625 181.609375 316.078125 L 181.609375 58.957031 C 177.722656 46.414062 166.164062 37.523438 152.742188 37.523438 C 143.742188 37.523438 135.390625 41.503906 129.679688 48.351562 C 129.183594 48.324219 128.683594 48.3125 128.1875 48.3125 C 113.867188 48.3125 101.957031 58.804688 99.742188 72.507812 C 89.597656 76.457031 82.421875 85.910156 81.484375 96.90625 C 72.890625 102.058594 67.542969 111.324219 67.542969 121.582031 C 67.542969 123.160156 67.671875 124.730469 67.933594 126.28125 C 58.625 132.242188 52.863281 142.542969 52.863281 153.878906 C 52.863281 159.332031 54.191406 164.582031 56.742188 169.316406 C 53.132812 174.6875 51.183594 180.996094 51.183594 187.539062 C 51.183594 191.203125 51.789062 194.769531 52.972656 198.191406 C 49.0625 203.707031 46.945312 210.28125 46.945312 217.109375 C 46.945312 224.421875 49.316406 231.335938 53.699219 237.03125 " fill-opacity="1" fill-rule="nonzero"/></g><path fill="#56aeff" d="M 231.566406 118.492188 C 231.566406 123.203125 227.746094 127.019531 223.035156 127.019531 C 218.324219 127.019531 214.507812 123.203125 214.507812 118.492188 C 214.507812 113.777344 218.324219 109.960938 223.035156 109.960938 C 227.746094 109.960938 231.566406 113.777344 231.566406 118.492188 " fill-opacity="1" fill-rule="nonzero"/><path fill="#145da0" d="M 272.777344 116.054688 C 272.777344 120.765625 268.960938 124.582031 264.246094 124.582031 C 259.539062 124.582031 255.71875 120.765625 255.71875 116.054688 C 255.71875 111.339844 259.539062 107.523438 264.246094 107.523438 C 268.960938 107.523438 272.777344 111.339844 272.777344 116.054688 " fill-opacity="1" fill-rule="nonzero"/><path fill="#145da0" d="M 244.765625 162.765625 C 244.765625 171.175781 237.949219 177.996094 229.535156 177.996094 C 221.125 177.996094 214.304688 171.175781 214.304688 162.765625 C 214.304688 154.351562 221.125 147.53125 229.535156 147.53125 C 237.949219 147.53125 244.765625 154.351562 244.765625 162.765625 " fill-opacity="1" fill-rule="nonzero"/><path fill="#145da0" d="M 242.332031 245.21875 C 242.332031 253.628906 235.511719 260.449219 227.097656 260.449219 C 218.6875 260.449219 211.867188 253.628906 211.867188 245.21875 C 211.867188 236.804688 218.6875 229.984375 227.097656 229.984375 C 235.511719 229.984375 242.332031 236.804688 242.332031 245.21875 " fill-opacity="1" fill-rule="nonzero"/><path fill="#56aeff" d="M 279.480469 214.753906 C 279.480469 223.167969 272.660156 229.984375 264.246094 229.984375 C 255.835938 229.984375 249.015625 223.167969 249.015625 214.753906 C 249.015625 206.34375 255.835938 199.523438 264.246094 199.523438 C 272.660156 199.523438 279.480469 206.34375 279.480469 214.753906 " fill-opacity="1" fill-rule="nonzero"/><path fill="#56aeff" d="M 284.804688 170.386719 C 284.804688 174.597656 281.394531 178.007812 277.183594 178.007812 C 272.972656 178.007812 269.558594 174.597656 269.558594 170.386719 C 269.558594 166.175781 272.972656 162.765625 277.183594 162.765625 C 281.394531 162.765625 284.804688 166.175781 284.804688 170.386719 " fill-opacity="1" fill-rule="nonzero"/><path fill="#56aeff" d="M 252.390625 94.527344 C 252.390625 98.738281 248.976562 102.148438 244.765625 102.148438 C 240.554688 102.148438 237.140625 98.738281 237.140625 94.527344 C 237.140625 90.316406 240.554688 86.90625 244.765625 86.90625 C 248.976562 86.90625 252.390625 90.316406 252.390625 94.527344 " fill-opacity="1" fill-rule="nonzero"/><path fill="#56aeff" d="M 242.34375 197.289062 C 242.34375 201.5 238.933594 204.910156 234.722656 204.910156 C 230.511719 204.910156 227.097656 201.5 227.097656 197.289062 C 227.097656 193.078125 230.511719 189.667969 234.722656 189.667969 C 238.933594 189.667969 242.34375 193.078125 242.34375 197.289062 " fill-opacity="1" fill-rule="nonzero"/><path fill="#145da0" d="M 304.175781 222.375 C 304.175781 226.585938 300.761719 230 296.554688 230 C 292.34375 230 288.929688 226.585938 288.929688 222.375 C 288.929688 218.164062 292.34375 214.753906 296.554688 214.753906 C 300.761719 214.753906 304.175781 218.164062 304.175781 222.375 " fill-opacity="1" fill-rule="nonzero"/></svg>